# xmcd CD database file
#
# Track frame offsets:
#	150
#	18374
#	33584
#	45608
#	62518
#	83230
#	94912
#	113985
#	138687
#	159196
#	182413
#	193110
#	205972
#
# Disc length: 3043 seconds
#
# Revision: 1
# Processed by: cddbd v1.5.2PL0 Copyright (c) Steve Scherf et al.
# Submitted via: CDex 1.70beta2
#
DISCID=ad0be10d
DTITLE=Powerful Stuff - Fuel For The Soul
DYEAR=2007
DGENRE=Blues
TTITLE0=Nobody
TTITLE1=Boogie Babe
TTITLE2=What have I done
TTITLE3=Fuel for the soul
TTITLE4=Never feel guilty
TTITLE5=High blood pressure
TTITLE6=Kinky woman
TTITLE7=That's me in the jungle
TTITLE8=Hey baby
TTITLE9=You make me complete
TTITLE10=Merleen
TTITLE11=That's over now
TTITLE12=Powerful stuff
EXTD=YEAR: 2007
EXTT0=
EXTT1=
EXTT2=
EXTT3=
EXTT4=
EXTT5=
EXTT6=
EXTT7=
EXTT8=
EXTT9=
EXTT10=
EXTT11=
EXTT12=
PLAYORDER=
